<svg width="34" height="36" viewBox="0 0 34 36" fill="none" xmlns="http://www.w3.org/2000/svg">
<path fill-rule="evenodd" clip-rule="evenodd" d="M29.6723 31.4073C32.5574 28.3455 34 23.8724 34 17.988C34 16.562 33.9162 15.2194 33.7486 13.9602L21.1147 26.5995C19.6129 28.102 17.1777 28.102 15.6758 26.5995C15.6467 26.5704 15.6182 26.541 15.5903 26.5112C15.5606 26.4833 15.5312 26.4548 15.5023 26.4258L6.80005 17.7199C5.29816 16.2173 5.29816 13.7812 6.80005 12.2787C8.30194 10.7761 10.7371 10.7761 12.239 12.2787L18.3953 18.4377L30.8497 5.97791C30.4952 5.47839 30.1107 5.00873 29.6962 4.56879C26.827 1.52295 22.6109 0 17.0478 0C11.5007 0 7.26862 1.53888 4.35162 4.61664C1.45056 7.67841 0 12.1196 0 17.9402C0 23.8246 1.4585 28.3056 4.37555 31.3834C7.30847 34.4611 11.5167 36 17 36C22.563 36 26.7872 34.4691 29.6723 31.4073Z" fill="white"/>
</svg>
